<svg width="18" height="24" viewBox="0 0 18 24" fill="none" xmlns="http://www.w3.org/2000/svg">
<path d="M14.2263 14.3651L12.3881 14.1552C11.9467 14.1046 11.5125 14.2566 11.2013 14.5677L9.86971 15.8993C7.8217 14.8572 6.14276 13.1855 5.10067 11.1303L6.43947 9.79144C6.75065 9.48025 6.90263 9.04605 6.85197 8.6046L6.6421 6.78092C6.55526 6.05 5.94013 5.5 5.20198 5.5H3.95002C3.13226 5.5 2.452 6.18026 2.50266 6.99802C2.88621 13.1783 7.82894 18.1138 14.0019 18.4973C14.8197 18.548 15.4999 17.8677 15.4999 17.05V15.798C15.5072 15.0671 14.9572 14.452 14.2263 14.3651Z" fill="#2E2F42"/>
</svg>
